<svg xmlns="http://www.w3.org/2000/svg" xmlns:xlink="http://www.w3.org/1999/xlink" id="svg" version="1.1" width="400" height="413.1868131868132" viewBox="0, 0, 400,413.1868131868132"><g id="svgg"><path id="path0" d="M208.765 109.982 C 204.386 111.310,202.399 117.412,203.411 126.426 C 203.763 129.555,203.901 129.694,206.351 129.369 C 208.363 129.102,214.400 125.097,214.400 124.028 C 214.400 123.579,219.064 119.898,220.717 119.043 C 221.456 118.661,222.939 118.400,224.374 118.400 C 226.454 118.400,226.961 118.245,228.044 117.277 L 229.301 116.154 226.951 114.045 C 222.621 110.161,214.305 108.303,208.765 109.982 M242.976 124.712 C 238.834 128.168,237.819 131.809,240.134 134.902 C 240.668 135.616,241.380 136.743,241.715 137.408 C 242.545 139.051,247.802 144.229,255.210 150.699 C 259.679 154.603,264.920 154.282,266.766 149.991 C 268.660 145.589,268.042 144.632,255.562 132.619 C 248.167 125.502,244.666 123.302,242.976 124.712 M223.859 127.527 C 221.964 128.213,220.446 129.407,215.503 134.100 C 214.171 135.365,212.935 136.400,212.755 136.400 C 212.576 136.400,211.725 137.435,210.864 138.700 C 210.002 139.965,208.915 141.343,208.449 141.762 C 207.460 142.650,207.237 154.720,208.138 158.576 C 209.463 164.246,218.117 164.764,223.932 159.522 C 225.105 158.465,226.216 157.600,226.401 157.600 C 227.215 157.600,232.439 152.069,232.842 150.779 C 233.544 148.539,234.021 135.006,233.501 132.077 C 233.011 129.316,231.274 127.204,229.486 127.196 C 228.999 127.193,227.970 127.109,227.200 127.008 C 226.410 126.905,224.954 127.131,223.859 127.527 M237.989 158.680 C 236.692 159.572,228.814 166.488,225.960 169.240 C 217.292 177.601,214.826 179.908,213.538 180.864 C 208.803 184.380,209.343 199.270,214.262 200.829 C 216.959 201.683,226.854 201.796,228.449 200.991 C 231.727 199.336,233.106 197.215,233.833 192.713 C 234.483 188.690,236.517 184.521,239.475 181.151 C 244.772 175.116,245.405 173.917,245.788 169.188 C 246.355 162.194,245.262 159.137,241.941 158.425 C 239.345 157.868,239.152 157.881,237.989 158.680 M258.752 159.400 C 256.576 160.533,256.019 162.031,255.971 166.877 C 255.913 172.633,255.539 173.977,253.490 175.784 C 250.770 178.184,249.270 181.795,250.221 183.656 C 251.898 186.939,252.072 187.054,256.089 187.556 C 261.105 188.183,261.392 188.520,261.029 193.358 C 260.883 195.314,260.486 197.564,260.147 198.358 C 259.549 199.761,259.208 211.842,259.743 212.707 C 260.176 213.409,259.317 214.045,258.286 213.786 C 256.949 213.450,256.758 212.565,256.446 205.221 L 256.200 199.442 254.800 198.621 C 251.365 196.607,241.447 197.858,238.770 200.643 C 238.016 201.427,236.635 202.520,235.700 203.072 C 234.006 204.072,234.000 204.085,234.000 206.430 C 234.000 209.774,233.192 210.127,224.200 210.712 C 217.979 211.116,210.390 212.357,208.726 213.242 C 207.346 213.976,202.383 214.764,195.200 215.392 C 181.956 216.548,179.854 217.143,181.561 219.251 C 182.587 220.519,185.033 220.606,203.761 220.047 C 220.159 219.557,230.430 219.889,233.690 221.016 L 235.581 221.669 235.342 223.952 L 235.103 226.236 236.652 226.741 C 242.356 228.602,251.084 227.418,255.900 224.131 C 257.715 222.892,259.205 221.771,259.211 221.639 C 259.217 221.508,259.411 219.690,259.643 217.600 C 259.875 215.510,260.088 213.488,260.118 213.106 C 260.153 212.650,260.307 212.547,260.566 212.806 C 261.227 213.467,261.501 213.257,261.743 211.900 C 262.397 208.242,261.963 186.099,261.132 180.698 C 260.480 176.460,261.246 173.834,263.556 172.384 L 265.125 171.400 263.814 170.314 C 262.524 169.244,262.510 169.195,262.872 167.114 C 263.403 164.063,264.529 163.323,269.741 162.606 L 271.682 162.339 270.741 161.316 C 268.081 158.427,262.372 157.514,258.752 159.400 M281.484 167.649 C 281.364 168.545,280.859 169.711,280.363 170.239 C 279.867 170.768,279.675 171.200,279.937 171.200 C 280.869 171.200,281.576 173.883,282.205 179.800 C 282.975 187.035,283.355 188.643,284.359 188.905 C 285.374 189.171,285.530 190.624,286.000 204.200 C 286.817 227.791,288.514 236.146,289.624 222.037 C 290.631 209.238,289.065 188.785,287.019 188.007 C 285.952 187.601,285.614 186.079,285.598 181.600 C 285.565 172.418,284.783 168.212,282.852 166.837 L 281.703 166.019 281.484 167.649 M123.517 183.197 C 123.643 185.365,123.546 186.583,123.217 186.980 C 122.526 187.813,122.939 188.239,124.920 188.738 C 127.860 189.478,127.870 189.511,128.170 199.400 C 128.409 207.252,128.716 210.769,129.444 214.000 L 129.669 215.000 130.334 213.800 C 131.972 210.847,131.085 189.672,129.145 185.401 C 128.745 184.520,128.414 183.404,128.409 182.920 C 128.397 181.755,126.065 180.000,124.528 180.000 L 123.332 180.000 123.517 183.197 M103.168 188.186 C 102.252 190.250,102.235 197.004,103.137 200.800 L 103.469 202.200 103.932 200.600 C 104.187 199.720,104.398 198.280,104.400 197.400 C 104.406 195.104,105.060 193.067,106.179 191.860 C 106.995 190.979,107.055 190.759,106.554 190.478 C 106.225 190.294,105.528 189.257,105.003 188.172 L 104.050 186.200 103.168 188.186 M298.600 198.084 C 296.720 198.743,295.919 199.622,296.196 200.724 C 296.328 201.252,296.606 203.870,296.812 206.542 C 297.916 220.797,299.185 224.249,302.668 222.464 C 306.479 220.509,306.939 219.144,306.594 210.800 C 306.162 200.319,303.645 196.315,298.600 198.084 M106.731 212.100 C 105.110 215.038,106.379 235.666,108.145 235.087 C 109.638 234.598,109.740 224.506,108.352 214.584 C 107.858 211.053,107.561 210.597,106.731 212.100 M166.600 221.600 C 164.179 221.792,165.202 221.870,170.800 221.921 C 175.700 221.965,177.997 221.857,177.600 221.600 C 176.959 221.186,171.836 221.186,166.600 221.600 M133.379 224.659 C 133.107 227.197,133.351 232.798,133.881 236.185 L 134.130 237.771 134.698 236.185 C 135.687 233.427,135.814 228.323,134.978 224.966 C 134.068 221.308,133.744 221.246,133.379 224.659 M265.162 227.400 C 263.839 233.084,264.583 253.668,266.447 262.964 C 267.878 270.106,269.095 271.268,274.017 270.196 C 275.658 269.839,279.655 269.046,282.901 268.434 C 289.458 267.199,289.701 267.067,291.693 263.644 L 293.000 261.400 292.930 253.800 C 292.778 237.330,291.920 235.115,291.271 249.518 C 290.889 257.991,290.981 257.793,286.800 259.153 C 281.510 260.872,274.729 261.255,271.800 260.000 C 270.774 259.560,269.634 259.197,269.267 259.194 C 267.524 259.178,267.497 259.010,267.404 247.543 C 267.277 231.902,266.254 222.706,265.162 227.400 M93.379 229.624 C 90.987 232.266,91.314 242.982,93.936 247.881 C 94.500 248.934,98.626 250.521,99.535 250.035 C 101.757 248.846,101.759 248.819,100.426 239.586 C 99.752 234.915,99.200 230.928,99.200 230.727 C 99.200 229.353,94.440 228.451,93.379 229.624 M208.045 230.032 C 205.588 230.515,205.616 230.663,208.268 231.216 C 210.586 231.699,216.657 231.511,220.200 230.848 L 221.800 230.548 219.680 230.074 C 217.281 229.537,210.685 229.514,208.045 230.032 M186.000 234.193 C 185.670 234.279,184.500 234.481,183.400 234.642 C 181.531 234.916,181.478 234.954,182.600 235.220 C 185.599 235.933,196.948 235.425,195.009 234.665 C 194.135 234.323,186.951 233.947,186.000 234.193 M111.243 239.120 C 110.108 241.240,110.408 251.128,111.745 255.685 L 112.249 257.400 112.824 256.400 C 113.985 254.384,113.269 239.384,111.974 238.584 C 111.790 238.470,111.461 238.712,111.243 239.120 M138.267 255.867 C 137.883 256.250,137.992 262.050,138.400 263.000 C 138.623 263.520,138.754 262.363,138.772 259.700 C 138.800 255.606,138.768 255.365,138.267 255.867 M115.761 263.470 C 115.609 264.278,115.590 267.023,115.718 269.570 C 116.117 277.504,117.316 277.671,117.376 269.800 C 117.421 263.818,116.427 259.920,115.761 263.470 M141.834 272.334 C 141.485 273.009,141.200 273.818,141.200 274.134 C 141.200 277.533,127.441 281.642,122.675 279.667 C 119.638 278.408,119.184 278.671,118.589 282.033 C 118.281 283.777,121.323 287.482,123.916 288.520 C 125.856 289.296,131.113 288.787,135.316 287.415 C 136.902 286.897,138.920 286.352,139.800 286.203 C 145.798 285.189,146.250 283.843,143.804 274.294 C 143.000 271.156,142.633 270.790,141.834 272.334 " stroke="none" fill="#c78e28" fill-rule="evenodd"/><path id="path1" d="M174.980 109.358 C 171.494 110.024,170.136 110.703,166.680 113.513 C 162.482 116.925,163.711 118.671,170.616 119.102 C 174.563 119.348,175.712 120.079,181.400 125.966 C 182.060 126.650,183.534 128.101,184.676 129.192 L 186.752 131.176 188.635 130.610 C 191.620 129.711,191.915 128.834,191.971 120.715 C 192.041 110.430,187.002 107.062,174.980 109.358 M145.047 125.934 C 138.657 131.002,128.013 142.286,127.221 144.832 C 125.283 151.058,129.944 155.441,136.259 153.330 C 138.248 152.666,143.103 148.523,150.013 141.595 C 156.673 134.918,157.596 129.887,153.076 124.900 C 151.522 123.186,147.928 123.648,145.047 125.934 M167.800 126.199 C 167.580 126.273,166.721 126.448,165.891 126.587 C 164.043 126.896,161.799 128.793,161.147 130.596 C 160.766 131.648,160.378 131.990,159.342 132.185 C 157.530 132.524,157.075 133.464,158.070 134.810 C 159.197 136.334,159.580 138.431,159.590 143.151 C 159.605 149.670,161.959 153.632,168.400 157.979 C 169.170 158.499,170.520 159.601,171.400 160.429 C 175.384 164.176,180.942 164.866,185.078 162.127 C 187.950 160.226,188.622 157.415,188.287 148.702 L 188.059 142.762 186.723 141.281 C 185.988 140.466,184.970 139.125,184.460 138.300 C 183.951 137.475,183.382 136.800,183.196 136.800 C 183.010 136.800,180.910 134.890,178.529 132.555 C 173.610 127.731,169.850 125.503,167.800 126.199 M150.251 158.812 C 148.916 160.399,148.599 162.077,148.631 167.400 C 148.669 173.899,149.209 175.327,153.627 180.625 C 158.084 185.971,158.111 186.021,159.212 191.167 C 161.021 199.614,163.443 201.588,172.374 201.897 C 182.964 202.262,185.200 200.277,185.200 190.512 C 185.200 183.975,183.800 182.023,171.236 171.047 C 170.006 169.972,167.307 167.542,165.239 165.647 C 156.030 157.209,156.603 157.600,153.462 157.600 C 151.514 157.600,151.158 157.734,150.251 158.812 M126.600 158.371 C 119.689 160.039,118.799 175.494,125.432 178.642 C 127.119 179.443,129.311 181.646,131.260 184.501 C 133.637 187.983,136.292 189.071,140.888 188.448 C 146.403 187.699,147.212 181.374,142.452 176.210 C 140.853 174.475,139.542 171.003,138.976 167.000 C 137.990 160.033,133.292 156.757,126.600 158.371 M273.821 161.962 C 272.733 162.387,274.267 162.787,277.011 162.795 C 278.228 162.798,279.413 163.066,280.011 163.472 L 281.000 164.145 280.259 163.295 C 279.851 162.828,279.041 162.357,278.459 162.250 C 275.803 161.759,274.542 161.680,273.821 161.962 M268.800 171.578 C 267.516 171.829,267.615 171.877,270.000 172.161 C 272.613 172.472,275.311 172.254,276.929 171.602 C 277.977 171.179,270.950 171.159,268.800 171.578 M114.071 179.661 C 110.464 180.178,107.627 181.636,106.007 183.805 C 105.431 184.577,105.438 184.580,106.239 183.900 C 107.937 182.458,111.961 181.210,117.148 180.516 C 120.002 180.135,122.251 179.682,122.145 179.511 C 121.897 179.110,117.324 179.195,114.071 179.661 M116.200 188.985 C 112.480 189.435,108.946 190.279,109.299 190.632 C 109.628 190.961,120.847 189.313,121.290 188.870 C 121.852 188.308,121.767 188.310,116.200 188.985 " stroke="none" fill="#047ac2" fill-rule="evenodd"/><path id="path2" d="M268.024 162.836 C 264.517 163.448,263.479 164.261,262.943 166.819 L 262.486 169.000 263.912 170.302 L 265.338 171.604 272.169 171.363 C 280.829 171.057,282.313 170.127,281.454 165.545 C 280.985 163.047,274.413 161.721,268.024 162.836 M115.800 180.637 C 107.184 181.946,103.368 184.816,105.204 188.608 C 106.384 191.046,107.366 191.435,109.714 190.397 C 110.918 189.864,113.546 189.336,116.906 188.952 C 123.236 188.228,123.580 187.983,123.586 184.200 C 123.592 179.528,123.471 179.473,115.800 180.637 " stroke="none" fill="#dcd4c0" fill-rule="evenodd"/><path id="path3" d="M210.600 106.436 C 209.081 106.971,208.416 107.250,205.128 108.729 C 201.451 110.384,201.198 110.962,200.746 118.770 C 200.338 125.793,200.362 125.743,197.177 126.165 C 193.014 126.717,193.149 125.385,193.101 166.421 C 193.054 205.161,192.908 203.927,197.513 203.643 C 202.182 203.356,202.052 203.974,202.269 181.036 C 202.402 167.063,202.614 160.651,203.044 157.600 C 203.370 155.290,203.633 151.690,203.627 149.600 C 203.618 145.948,203.482 144.911,202.365 139.958 C 201.330 135.370,205.528 131.576,209.829 133.211 L 210.852 133.600 208.488 136.500 C 204.686 141.166,204.044 144.433,204.853 155.000 C 205.395 162.072,205.356 161.994,210.110 165.497 C 213.166 167.749,218.723 167.799,220.757 165.594 C 221.360 164.940,222.422 164.349,223.274 164.192 C 224.916 163.890,225.717 163.157,226.262 161.458 C 226.525 160.637,227.053 160.170,228.140 159.796 C 228.972 159.510,229.972 158.988,230.361 158.635 C 231.018 158.041,231.103 158.070,231.546 159.042 C 232.193 160.462,231.631 161.047,229.374 161.302 C 227.196 161.547,227.140 161.595,226.835 163.471 C 226.627 164.751,226.406 164.999,225.197 165.311 C 223.333 165.793,222.867 166.234,222.574 167.797 C 222.400 168.727,221.899 169.390,220.866 170.059 C 220.062 170.579,219.084 171.685,218.693 172.516 C 218.267 173.420,217.543 174.193,216.891 174.441 C 215.481 174.977,214.398 175.966,213.957 177.119 C 213.763 177.625,213.015 178.285,212.294 178.586 C 210.730 179.240,209.897 180.117,209.051 182.000 C 208.705 182.770,208.012 183.910,207.511 184.534 C 206.173 186.199,206.174 194.717,207.512 196.830 C 207.989 197.584,208.813 199.120,209.343 200.245 C 210.412 202.513,211.519 203.473,213.486 203.843 C 214.790 204.087,214.800 204.107,214.800 206.382 L 214.800 208.675 211.300 209.431 C 208.772 209.978,206.427 210.168,202.858 210.118 C 197.644 210.044,196.000 210.635,196.000 212.582 C 196.000 212.922,195.808 213.200,195.574 213.200 C 194.112 213.200,179.276 214.480,176.800 214.820 C 175.150 215.047,172.180 215.752,170.200 216.388 C 166.365 217.619,163.619 218.019,152.200 219.013 C 143.962 219.729,141.167 220.158,139.576 220.952 C 138.131 221.673,137.399 220.086,136.553 214.400 C 136.242 212.310,135.811 210.078,135.594 209.440 C 135.377 208.802,135.199 207.182,135.198 205.840 C 135.196 204.409,134.936 202.904,134.569 202.200 C 134.196 201.486,133.716 198.653,133.383 195.200 C 132.626 187.368,132.329 186.021,130.906 183.965 C 127.849 179.546,125.065 177.737,122.318 178.384 C 121.373 178.606,119.970 178.852,119.200 178.930 C 118.190 179.032,118.379 179.090,119.876 179.136 C 121.018 179.171,122.064 179.380,122.200 179.600 C 122.336 179.820,123.185 180.000,124.086 180.000 C 126.067 180.000,128.395 181.573,128.409 182.920 C 128.414 183.404,128.745 184.520,129.145 185.401 C 131.085 189.672,131.972 210.847,130.334 213.800 L 129.669 215.000 129.444 214.000 C 128.712 210.754,128.405 207.240,128.160 199.310 C 127.851 189.285,127.967 189.633,124.593 188.618 C 122.800 188.078,122.546 188.090,121.422 188.761 C 120.665 189.213,118.603 189.672,116.000 189.969 C 105.163 191.205,105.034 191.286,104.408 197.284 C 103.732 203.755,103.061 203.061,102.553 195.365 C 102.206 190.115,102.454 188.998,104.693 185.728 C 107.190 182.080,109.930 180.058,112.496 179.968 C 112.993 179.951,113.165 179.843,112.877 179.727 C 110.360 178.720,102.174 182.567,100.807 185.400 C 98.728 189.707,99.755 212.420,102.391 220.431 C 103.654 224.271,104.303 232.287,103.683 236.400 L 103.352 238.600 103.090 236.600 C 102.945 235.500,102.709 233.075,102.564 231.210 C 102.188 226.368,100.849 224.962,96.991 225.357 C 89.712 226.103,85.912 233.464,89.107 240.627 C 89.787 242.152,90.457 244.120,90.596 245.000 C 91.340 249.715,92.072 250.766,95.364 251.847 C 96.484 252.214,97.737 252.747,98.148 253.029 C 99.513 253.966,105.466 250.203,107.053 247.400 C 107.775 246.125,107.917 246.664,108.583 253.210 C 109.366 260.905,109.714 262.612,111.174 265.946 C 112.094 268.045,112.469 269.804,112.970 274.361 C 113.740 281.382,114.113 282.841,115.558 284.505 C 116.177 285.217,117.159 286.561,117.741 287.492 C 119.867 290.890,123.787 291.729,133.422 290.849 C 143.452 289.933,150.876 285.147,147.979 281.464 C 147.341 280.653,146.972 279.011,146.327 274.110 C 145.571 268.365,145.000 266.068,143.027 260.839 C 142.657 259.859,142.162 256.618,141.911 253.531 C 141.373 246.925,141.738 245.492,144.066 245.079 C 144.800 244.948,147.560 244.395,150.200 243.848 C 153.120 243.244,158.440 242.599,163.783 242.203 C 173.092 241.513,178.437 240.707,179.877 239.778 C 180.876 239.133,185.352 238.599,194.600 238.022 C 201.301 237.605,203.943 237.044,206.852 235.424 C 208.441 234.538,209.454 234.391,218.000 233.803 C 228.043 233.113,231.624 232.556,234.534 231.230 C 236.064 230.533,237.714 230.328,244.680 229.966 C 249.256 229.728,253.990 229.294,255.200 229.000 C 258.199 228.273,259.404 229.150,260.736 233.031 C 261.717 235.889,261.703 235.716,262.790 257.800 C 263.516 272.553,264.372 273.623,274.993 273.055 C 280.247 272.774,283.887 272.013,285.549 270.848 C 286.127 270.443,287.542 269.889,288.693 269.618 C 295.728 267.957,296.331 265.763,295.616 244.421 C 294.980 225.456,295.157 223.821,297.698 225.130 C 299.607 226.113,302.973 225.979,305.349 224.827 C 308.685 223.208,309.021 221.976,308.900 211.800 C 308.753 199.462,308.312 197.990,304.157 195.979 C 303.226 195.529,302.248 194.899,301.983 194.580 C 301.651 194.179,300.676 194.000,298.829 194.000 C 294.160 194.000,292.800 196.309,292.800 204.236 C 292.800 207.082,292.632 209.257,292.400 209.400 C 292.142 209.560,291.999 207.903,291.997 204.724 C 291.991 194.421,290.343 180.751,288.630 176.800 C 288.105 175.590,287.557 173.430,287.411 172.000 C 286.626 164.279,283.619 161.193,276.887 161.198 C 274.443 161.200,274.350 161.161,273.558 159.818 C 272.616 158.222,270.138 157.126,265.737 156.360 L 263.013 155.885 264.918 155.402 C 270.327 154.028,271.624 142.511,266.696 139.604 C 265.958 139.168,265.049 138.173,264.677 137.392 C 264.305 136.612,263.381 135.608,262.625 135.162 C 261.869 134.715,260.890 133.741,260.451 132.997 C 260.012 132.252,258.953 131.202,258.099 130.663 C 257.245 130.123,256.234 129.206,255.853 128.625 C 255.473 128.044,254.279 127.026,253.200 126.362 C 252.122 125.699,251.134 124.822,251.004 124.414 C 249.929 121.024,240.113 121.149,238.102 124.578 C 237.936 124.862,237.212 125.758,236.493 126.569 L 235.186 128.044 234.175 126.844 C 233.620 126.183,232.840 125.540,232.443 125.414 C 232.040 125.286,231.511 124.481,231.243 123.586 C 230.884 122.387,230.452 121.860,229.514 121.478 L 228.264 120.967 229.932 120.468 C 236.566 118.480,230.626 109.490,221.664 107.955 C 220.199 107.704,218.500 107.244,217.889 106.933 C 216.434 106.193,212.123 105.899,210.600 106.436 M219.800 110.147 C 222.882 110.814,224.072 111.463,226.951 114.045 L 229.301 116.154 228.044 117.277 C 226.961 118.245,226.454 118.400,224.374 118.400 C 222.939 118.400,221.456 118.661,220.717 119.043 C 219.064 119.898,214.400 123.579,214.400 124.028 C 214.400 126.069,204.936 130.714,203.968 129.148 C 202.738 127.158,203.156 116.449,204.573 113.654 C 206.507 109.836,212.250 108.514,219.800 110.147 M222.394 124.685 C 222.397 124.951,221.671 125.366,220.779 125.606 C 219.887 125.846,218.789 126.411,218.339 126.861 C 217.335 127.865,216.683 127.373,216.869 125.752 C 216.990 124.692,217.164 124.584,219.200 124.293 C 220.410 124.121,221.467 123.784,221.548 123.545 C 221.722 123.037,222.384 123.930,222.394 124.685 M247.562 125.738 C 251.264 127.900,265.927 142.369,266.987 144.908 C 269.966 152.038,261.506 156.198,255.210 150.699 C 247.802 144.229,242.545 139.051,241.715 137.408 C 241.380 136.743,240.668 135.616,240.134 134.902 C 238.297 132.448,238.392 130.007,240.422 127.519 C 243.641 123.575,243.792 123.537,247.562 125.738 M229.486 127.196 C 231.274 127.204,233.011 129.316,233.501 132.077 C 234.021 135.006,233.544 148.539,232.842 150.779 C 232.439 152.069,227.215 157.600,226.401 157.600 C 226.216 157.600,225.105 158.465,223.932 159.522 C 218.117 164.764,209.463 164.246,208.138 158.576 C 207.237 154.720,207.460 142.650,208.449 141.762 C 208.915 141.343,210.002 139.965,210.864 138.700 C 211.725 137.435,212.576 136.400,212.755 136.400 C 212.935 136.400,214.171 135.365,215.503 134.100 C 221.963 127.966,224.192 126.615,227.200 127.008 C 227.970 127.109,228.999 127.193,229.486 127.196 M215.101 129.130 C 215.459 129.358,215.242 129.714,214.338 130.382 C 213.131 131.275,213.051 131.284,212.544 130.591 C 211.595 129.294,213.576 128.162,215.101 129.130 M243.600 143.866 C 245.250 145.465,247.590 147.687,248.800 148.803 C 250.010 149.919,251.908 151.704,253.019 152.769 C 254.639 154.324,255.488 154.807,257.321 155.217 C 259.910 155.797,259.911 155.899,257.329 156.771 C 254.117 157.855,253.232 160.306,253.203 168.200 C 253.185 172.874,253.030 173.356,251.349 173.964 C 250.033 174.440,249.373 175.355,248.629 177.733 C 248.088 179.461,247.458 178.103,247.627 175.576 C 248.048 169.297,247.807 159.814,247.195 158.600 C 246.588 157.394,244.997 156.423,242.400 155.674 C 241.630 155.451,240.614 155.158,240.142 155.021 C 239.654 154.880,239.050 154.999,238.742 155.297 C 237.884 156.127,234.895 157.150,234.008 156.918 C 233.017 156.659,233.015 156.587,233.954 154.600 C 234.370 153.720,235.222 151.920,235.847 150.600 C 236.650 148.906,237.052 147.309,237.216 145.171 C 237.384 142.973,237.708 141.720,238.397 140.604 L 239.347 139.067 239.974 140.013 C 240.318 140.532,241.950 142.266,243.600 143.866 M241.941 158.425 C 245.262 159.137,246.355 162.194,245.788 169.188 C 245.405 173.917,244.772 175.116,239.475 181.151 C 236.517 184.521,234.483 188.690,233.833 192.713 C 233.106 197.215,231.727 199.336,228.449 200.991 C 226.854 201.796,216.959 201.683,214.262 200.829 C 209.343 199.270,208.803 184.380,213.538 180.864 C 214.826 179.908,217.292 177.601,225.960 169.240 C 228.814 166.488,236.692 159.572,237.989 158.680 C 239.152 157.881,239.345 157.868,241.941 158.425 M267.600 159.231 C 268.590 159.679,269.980 160.605,270.688 161.290 C 271.899 162.459,272.067 162.508,273.488 162.096 C 276.507 161.223,281.200 162.817,281.200 164.716 C 281.200 165.033,281.939 165.968,282.842 166.793 C 284.827 168.608,285.039 169.509,285.382 177.600 C 285.768 186.700,285.905 187.584,286.993 187.997 C 289.065 188.785,290.639 209.142,289.624 222.037 C 288.514 236.146,286.817 227.791,286.000 204.200 C 285.530 190.624,285.374 189.171,284.359 188.905 C 283.357 188.643,282.977 187.046,282.197 179.800 C 281.243 170.934,280.947 170.466,277.000 171.598 L 274.600 172.286 276.294 172.805 C 279.381 173.749,279.359 173.665,280.578 189.200 C 281.060 195.348,281.365 197.232,282.379 200.336 C 283.140 202.664,283.600 204.902,283.600 206.273 C 283.600 207.484,283.774 210.572,283.987 213.137 C 284.200 215.702,284.574 222.390,284.818 228.000 C 285.062 233.610,285.424 240.000,285.623 242.200 C 286.933 256.698,286.695 257.177,277.913 257.729 C 273.648 257.998,273.125 257.661,272.422 254.200 C 272.153 252.880,271.516 250.450,271.005 248.800 C 270.049 245.710,269.863 243.520,268.800 222.729 C 268.579 218.399,268.128 213.449,267.799 211.729 C 267.470 210.008,267.200 207.699,267.200 206.599 C 267.200 205.498,266.835 203.338,266.388 201.799 C 265.753 199.608,265.493 197.001,265.191 189.800 C 264.980 184.740,264.706 179.967,264.584 179.194 C 264.077 175.993,266.101 173.513,269.689 172.939 C 271.765 172.607,270.873 172.184,267.227 171.771 C 262.421 171.228,260.180 174.509,261.132 180.698 C 261.963 186.099,262.397 208.242,261.743 211.900 C 261.501 213.257,261.227 213.467,260.566 212.806 C 260.307 212.547,260.153 212.650,260.118 213.106 C 260.088 213.488,259.875 215.510,259.643 217.600 C 259.411 219.690,259.217 221.508,259.211 221.639 C 259.205 221.771,257.715 222.892,255.900 224.131 C 251.084 227.418,242.356 228.602,236.652 226.741 L 235.103 226.236 235.342 223.952 L 235.581 221.669 233.690 221.016 C 230.430 219.889,220.159 219.557,203.761 220.047 C 185.033 220.606,182.587 220.519,181.561 219.251 C 179.854 217.143,181.956 216.548,195.200 215.392 C 202.383 214.764,207.346 213.976,208.726 213.242 C 210.390 212.357,217.979 211.116,224.200 210.712 C 233.192 210.127,234.000 209.774,234.000 206.430 C 234.000 204.085,234.006 204.072,235.700 203.072 C 236.635 202.520,238.016 201.427,238.770 200.643 C 241.447 197.858,251.365 196.607,254.800 198.621 L 256.200 199.442 256.446 205.221 C 256.758 212.565,256.949 213.450,258.286 213.786 C 259.317 214.045,260.176 213.409,259.743 212.707 C 259.208 211.842,259.549 199.761,260.147 198.358 C 260.486 197.564,260.883 195.314,261.029 193.358 C 261.392 188.520,261.105 188.183,256.089 187.556 C 252.072 187.054,251.898 186.939,250.221 183.656 C 249.270 181.795,250.770 178.184,253.490 175.784 C 255.539 173.977,255.913 172.633,255.971 166.877 C 256.019 162.031,256.576 160.533,258.752 159.400 C 261.185 158.132,265.008 158.060,267.600 159.231 M245.799 183.357 C 247.430 187.370,249.814 189.439,253.900 190.391 C 256.115 190.907,256.258 191.140,255.570 193.114 C 254.855 195.165,253.908 195.497,248.588 195.563 C 245.954 195.596,242.757 195.823,241.481 196.067 C 237.752 196.782,237.301 196.390,237.666 192.748 C 238.186 187.544,238.578 186.347,240.179 185.063 C 240.979 184.421,242.186 183.093,242.861 182.112 C 244.278 180.052,244.493 180.143,245.799 183.357 M121.668 190.534 C 124.633 192.788,126.400 199.978,126.400 209.786 C 126.400 215.201,127.441 222.846,128.580 225.800 C 129.089 227.120,129.614 228.521,129.746 228.914 C 129.878 229.307,130.263 232.907,130.602 236.914 C 131.449 246.911,132.303 252.534,133.408 255.387 C 134.311 257.717,134.706 260.084,135.610 268.600 C 135.844 270.800,136.095 273.016,136.167 273.524 C 136.373 274.971,134.995 275.547,129.780 276.194 L 125.027 276.784 123.907 275.711 C 123.291 275.121,122.591 273.910,122.352 273.019 C 122.112 272.129,121.680 270.942,121.390 270.382 C 121.101 269.823,120.390 266.082,119.810 262.070 C 118.770 254.873,118.134 252.274,116.982 250.517 C 116.349 249.550,115.881 246.549,115.189 239.000 C 114.676 233.411,113.862 229.510,112.849 227.794 C 111.623 225.714,111.601 225.508,110.396 204.800 C 110.185 201.170,109.830 197.575,109.608 196.811 C 109.243 195.553,109.338 195.221,110.619 193.292 C 112.245 190.843,112.109 190.918,115.800 190.453 C 119.831 189.946,120.916 189.961,121.668 190.534 M302.838 198.567 C 306.879 201.313,308.469 217.088,305.073 220.739 C 300.066 226.123,298.062 222.678,296.812 206.542 C 296.606 203.870,296.328 201.252,296.196 200.724 C 295.589 198.309,300.236 196.799,302.838 198.567 M108.352 214.584 C 109.248 220.986,109.647 230.807,109.099 232.969 C 108.084 236.974,107.088 235.305,106.363 228.387 C 105.232 217.587,107.029 205.123,108.352 214.584 M177.600 221.600 C 177.997 221.857,175.700 221.965,170.800 221.921 C 165.202 221.870,164.179 221.792,166.600 221.600 C 171.836 221.186,176.959 221.186,177.600 221.600 M134.978 224.966 C 135.814 228.323,135.687 233.427,134.698 236.185 L 134.130 237.771 133.881 236.185 C 133.067 230.984,133.112 222.000,133.952 222.000 C 134.110 222.000,134.572 223.335,134.978 224.966 M215.323 224.423 C 221.238 225.913,219.994 226.294,204.891 227.618 C 199.620 228.080,196.629 228.784,194.400 230.085 C 193.285 230.736,191.654 231.012,186.400 231.440 C 175.687 232.312,172.192 232.788,168.701 233.850 C 163.693 235.375,162.674 235.528,154.332 236.018 C 144.279 236.607,142.895 236.244,142.134 232.818 C 140.717 226.436,143.812 225.673,174.000 224.956 C 179.830 224.818,187.660 224.576,191.400 224.418 C 202.240 223.959,213.493 223.962,215.323 224.423 M266.812 231.860 C 267.089 234.467,267.355 241.524,267.404 247.543 C 267.497 259.010,267.524 259.178,269.267 259.194 C 269.634 259.197,270.774 259.560,271.800 260.000 C 274.729 261.255,281.510 260.872,286.800 259.153 C 290.981 257.793,290.889 257.991,291.271 249.518 C 291.920 235.115,292.778 237.330,292.930 253.800 L 293.000 261.400 291.693 263.644 C 289.701 267.067,289.458 267.199,282.901 268.434 C 279.655 269.046,275.658 269.839,274.017 270.196 C 272.377 270.553,270.639 270.746,270.157 270.625 C 266.823 269.788,264.670 258.017,264.629 240.400 C 264.592 224.883,265.638 220.792,266.812 231.860 M97.500 229.589 C 98.435 230.014,99.200 230.526,99.200 230.727 C 99.200 230.928,99.752 234.915,100.426 239.586 C 101.946 250.117,101.458 251.390,96.611 249.535 C 93.540 248.360,93.224 247.681,92.030 239.685 C 90.747 231.092,92.733 227.425,97.500 229.589 M219.680 230.074 L 221.800 230.548 220.200 230.848 C 215.337 231.759,205.121 231.545,206.113 230.554 C 207.000 229.666,216.375 229.335,219.680 230.074 M195.009 234.665 C 196.948 235.425,185.599 235.933,182.600 235.220 C 181.478 234.954,181.531 234.916,183.400 234.642 C 184.500 234.481,185.670 234.279,186.000 234.193 C 186.951 233.947,194.135 234.323,195.009 234.665 M112.843 241.495 C 113.593 245.279,113.580 255.087,112.824 256.400 L 112.249 257.400 111.745 255.685 C 110.044 249.887,110.209 237.493,111.974 238.584 C 112.157 238.697,112.549 240.007,112.843 241.495 M138.772 259.700 C 138.754 262.363,138.623 263.520,138.400 263.000 C 137.731 261.444,137.942 255.600,138.667 255.600 C 138.740 255.600,138.787 257.445,138.772 259.700 M117.071 264.300 C 117.479 267.153,117.458 272.468,117.031 274.600 C 116.524 277.128,115.997 275.110,115.718 269.570 C 115.378 262.807,116.328 259.104,117.071 264.300 M143.804 274.294 C 146.250 283.843,145.798 285.189,139.800 286.203 C 138.920 286.352,136.902 286.897,135.316 287.415 C 131.113 288.787,125.856 289.296,123.916 288.520 C 121.323 287.482,118.281 283.777,118.589 282.033 C 119.184 278.671,119.638 278.408,122.675 279.667 C 127.441 281.642,141.200 277.533,141.200 274.134 C 141.200 273.148,142.446 271.086,142.818 271.458 C 143.010 271.650,143.454 272.926,143.804 274.294 " stroke="none" fill="#5c583c" fill-rule="evenodd"/></g><svg xmlns="http://www.w3.org/2000/svg" xmlns:xlink="http://www.w3.org/1999/xlink" id="svg" version="1.1" width="400" height="413.1868131868132" viewBox="0, 0, 400,413.1868131868132"><g id="svgg"><path id="path0" d="M208.765 109.982 C 204.386 111.310,202.399 117.412,203.411 126.426 C 203.763 129.555,203.901 129.694,206.351 129.369 C 208.363 129.102,214.400 125.097,214.400 124.028 C 214.400 123.579,219.064 119.898,220.717 119.043 C 221.456 118.661,222.939 118.400,224.374 118.400 C 226.454 118.400,226.961 118.245,228.044 117.277 L 229.301 116.154 226.951 114.045 C 222.621 110.161,214.305 108.303,208.765 109.982 M242.976 124.712 C 238.834 128.168,237.819 131.809,240.134 134.902 C 240.668 135.616,241.380 136.743,241.715 137.408 C 242.545 139.051,247.802 144.229,255.210 150.699 C 259.679 154.603,264.920 154.282,266.766 149.991 C 268.660 145.589,268.042 144.632,255.562 132.619 C 248.167 125.502,244.666 123.302,242.976 124.712 M223.859 127.527 C 221.964 128.213,220.446 129.407,215.503 134.100 C 214.171 135.365,212.935 136.400,212.755 136.400 C 212.576 136.400,211.725 137.435,210.864 138.700 C 210.002 139.965,208.915 141.343,208.449 141.762 C 207.460 142.650,207.237 154.720,208.138 158.576 C 209.463 164.246,218.117 164.764,223.932 159.522 C 225.105 158.465,226.216 157.600,226.401 157.600 C 227.215 157.600,232.439 152.069,232.842 150.779 C 233.544 148.539,234.021 135.006,233.501 132.077 C 233.011 129.316,231.274 127.204,229.486 127.196 C 228.999 127.193,227.970 127.109,227.200 127.008 C 226.410 126.905,224.954 127.131,223.859 127.527 M237.989 158.680 C 236.692 159.572,228.814 166.488,225.960 169.240 C 217.292 177.601,214.826 179.908,213.538 180.864 C 208.803 184.380,209.343 199.270,214.262 200.829 C 216.959 201.683,226.854 201.796,228.449 200.991 C 231.727 199.336,233.106 197.215,233.833 192.713 C 234.483 188.690,236.517 184.521,239.475 181.151 C 244.772 175.116,245.405 173.917,245.788 169.188 C 246.355 162.194,245.262 159.137,241.941 158.425 C 239.345 157.868,239.152 157.881,237.989 158.680 M258.752 159.400 C 256.576 160.533,256.019 162.031,255.971 166.877 C 255.913 172.633,255.539 173.977,253.490 175.784 C 250.770 178.184,249.270 181.795,250.221 183.656 C 251.898 186.939,252.072 187.054,256.089 187.556 C 261.105 188.183,261.392 188.520,261.029 193.358 C 260.883 195.314,260.486 197.564,260.147 198.358 C 259.549 199.761,259.208 211.842,259.743 212.707 C 260.176 213.409,259.317 214.045,258.286 213.786 C 256.949 213.450,256.758 212.565,256.446 205.221 L 256.200 199.442 254.800 198.621 C 251.365 196.607,241.447 197.858,238.770 200.643 C 238.016 201.427,236.635 202.520,235.700 203.072 C 234.006 204.072,234.000 204.085,234.000 206.430 C 234.000 209.774,233.192 210.127,224.200 210.712 C 217.979 211.116,210.390 212.357,208.726 213.242 C 207.346 213.976,202.383 214.764,195.200 215.392 C 181.956 216.548,179.854 217.143,181.561 219.251 C 182.587 220.519,185.033 220.606,203.761 220.047 C 220.159 219.557,230.430 219.889,233.690 221.016 L 235.581 221.669 235.342 223.952 L 235.103 226.236 236.652 226.741 C 242.356 228.602,251.084 227.418,255.900 224.131 C 257.715 222.892,259.205 221.771,259.211 221.639 C 259.217 221.508,259.411 219.690,259.643 217.600 C 259.875 215.510,260.088 213.488,260.118 213.106 C 260.153 212.650,260.307 212.547,260.566 212.806 C 261.227 213.467,261.501 213.257,261.743 211.900 C 262.397 208.242,261.963 186.099,261.132 180.698 C 260.480 176.460,261.246 173.834,263.556 172.384 L 265.125 171.400 263.814 170.314 C 262.524 169.244,262.510 169.195,262.872 167.114 C 263.403 164.063,264.529 163.323,269.741 162.606 L 271.682 162.339 270.741 161.316 C 268.081 158.427,262.372 157.514,258.752 159.400 M281.484 167.649 C 281.364 168.545,280.859 169.711,280.363 170.239 C 279.867 170.768,279.675 171.200,279.937 171.200 C 280.869 171.200,281.576 173.883,282.205 179.800 C 282.975 187.035,283.355 188.643,284.359 188.905 C 285.374 189.171,285.530 190.624,286.000 204.200 C 286.817 227.791,288.514 236.146,289.624 222.037 C 290.631 209.238,289.065 188.785,287.019 188.007 C 285.952 187.601,285.614 186.079,285.598 181.600 C 285.565 172.418,284.783 168.212,282.852 166.837 L 281.703 166.019 281.484 167.649 M123.517 183.197 C 123.643 185.365,123.546 186.583,123.217 186.980 C 122.526 187.813,122.939 188.239,124.920 188.738 C 127.860 189.478,127.870 189.511,128.170 199.400 C 128.409 207.252,128.716 210.769,129.444 214.000 L 129.669 215.000 130.334 213.800 C 131.972 210.847,131.085 189.672,129.145 185.401 C 128.745 184.520,128.414 183.404,128.409 182.920 C 128.397 181.755,126.065 180.000,124.528 180.000 L 123.332 180.000 123.517 183.197 M103.168 188.186 C 102.252 190.250,102.235 197.004,103.137 200.800 L 103.469 202.200 103.932 200.600 C 104.187 199.720,104.398 198.280,104.400 197.400 C 104.406 195.104,105.060 193.067,106.179 191.860 C 106.995 190.979,107.055 190.759,106.554 190.478 C 106.225 190.294,105.528 189.257,105.003 188.172 L 104.050 186.200 103.168 188.186 M298.600 198.084 C 296.720 198.743,295.919 199.622,296.196 200.724 C 296.328 201.252,296.606 203.870,296.812 206.542 C 297.916 220.797,299.185 224.249,302.668 222.464 C 306.479 220.509,306.939 219.144,306.594 210.800 C 306.162 200.319,303.645 196.315,298.600 198.084 M106.731 212.100 C 105.110 215.038,106.379 235.666,108.145 235.087 C 109.638 234.598,109.740 224.506,108.352 214.584 C 107.858 211.053,107.561 210.597,106.731 212.100 M166.600 221.600 C 164.179 221.792,165.202 221.870,170.800 221.921 C 175.700 221.965,177.997 221.857,177.600 221.600 C 176.959 221.186,171.836 221.186,166.600 221.600 M133.379 224.659 C 133.107 227.197,133.351 232.798,133.881 236.185 L 134.130 237.771 134.698 236.185 C 135.687 233.427,135.814 228.323,134.978 224.966 C 134.068 221.308,133.744 221.246,133.379 224.659 M265.162 227.400 C 263.839 233.084,264.583 253.668,266.447 262.964 C 267.878 270.106,269.095 271.268,274.017 270.196 C 275.658 269.839,279.655 269.046,282.901 268.434 C 289.458 267.199,289.701 267.067,291.693 263.644 L 293.000 261.400 292.930 253.800 C 292.778 237.330,291.920 235.115,291.271 249.518 C 290.889 257.991,290.981 257.793,286.800 259.153 C 281.510 260.872,274.729 261.255,271.800 260.000 C 270.774 259.560,269.634 259.197,269.267 259.194 C 267.524 259.178,267.497 259.010,267.404 247.543 C 267.277 231.902,266.254 222.706,265.162 227.400 M93.379 229.624 C 90.987 232.266,91.314 242.982,93.936 247.881 C 94.500 248.934,98.626 250.521,99.535 250.035 C 101.757 248.846,101.759 248.819,100.426 239.586 C 99.752 234.915,99.200 230.928,99.200 230.727 C 99.200 229.353,94.440 228.451,93.379 229.624 M208.045 230.032 C 205.588 230.515,205.616 230.663,208.268 231.216 C 210.586 231.699,216.657 231.511,220.200 230.848 L 221.800 230.548 219.680 230.074 C 217.281 229.537,210.685 229.514,208.045 230.032 M186.000 234.193 C 185.670 234.279,184.500 234.481,183.400 234.642 C 181.531 234.916,181.478 234.954,182.600 235.220 C 185.599 235.933,196.948 235.425,195.009 234.665 C 194.135 234.323,186.951 233.947,186.000 234.193 M111.243 239.120 C 110.108 241.240,110.408 251.128,111.745 255.685 L 112.249 257.400 112.824 256.400 C 113.985 254.384,113.269 239.384,111.974 238.584 C 111.790 238.470,111.461 238.712,111.243 239.120 M138.267 255.867 C 137.883 256.250,137.992 262.050,138.400 263.000 C 138.623 263.520,138.754 262.363,138.772 259.700 C 138.800 255.606,138.768 255.365,138.267 255.867 M115.761 263.470 C 115.609 264.278,115.590 267.023,115.718 269.570 C 116.117 277.504,117.316 277.671,117.376 269.800 C 117.421 263.818,116.427 259.920,115.761 263.470 M141.834 272.334 C 141.485 273.009,141.200 273.818,141.200 274.134 C 141.200 277.533,127.441 281.642,122.675 279.667 C 119.638 278.408,119.184 278.671,118.589 282.033 C 118.281 283.777,121.323 287.482,123.916 288.520 C 125.856 289.296,131.113 288.787,135.316 287.415 C 136.902 286.897,138.920 286.352,139.800 286.203 C 145.798 285.189,146.250 283.843,143.804 274.294 C 143.000 271.156,142.633 270.790,141.834 272.334 " stroke="none" fill="#c78e28" fill-rule="evenodd"/><path id="path1" d="M174.980 109.358 C 171.494 110.024,170.136 110.703,166.680 113.513 C 162.482 116.925,163.711 118.671,170.616 119.102 C 174.563 119.348,175.712 120.079,181.400 125.966 C 182.060 126.650,183.534 128.101,184.676 129.192 L 186.752 131.176 188.635 130.610 C 191.620 129.711,191.915 128.834,191.971 120.715 C 192.041 110.430,187.002 107.062,174.980 109.358 M145.047 125.934 C 138.657 131.002,128.013 142.286,127.221 144.832 C 125.283 151.058,129.944 155.441,136.259 153.330 C 138.248 152.666,143.103 148.523,150.013 141.595 C 156.673 134.918,157.596 129.887,153.076 124.900 C 151.522 123.186,147.928 123.648,145.047 125.934 M167.800 126.199 C 167.580 126.273,166.721 126.448,165.891 126.587 C 164.043 126.896,161.799 128.793,161.147 130.596 C 160.766 131.648,160.378 131.990,159.342 132.185 C 157.530 132.524,157.075 133.464,158.070 134.810 C 159.197 136.334,159.580 138.431,159.590 143.151 C 159.605 149.670,161.959 153.632,168.400 157.979 C 169.170 158.499,170.520 159.601,171.400 160.429 C 175.384 164.176,180.942 164.866,185.078 162.127 C 187.950 160.226,188.622 157.415,188.287 148.702 L 188.059 142.762 186.723 141.281 C 185.988 140.466,184.970 139.125,184.460 138.300 C 183.951 137.475,183.382 136.800,183.196 136.800 C 183.010 136.800,180.910 134.890,178.529 132.555 C 173.610 127.731,169.850 125.503,167.800 126.199 M150.251 158.812 C 148.916 160.399,148.599 162.077,148.631 167.400 C 148.669 173.899,149.209 175.327,153.627 180.625 C 158.084 185.971,158.111 186.021,159.212 191.167 C 161.021 199.614,163.443 201.588,172.374 201.897 C 182.964 202.262,185.200 200.277,185.200 190.512 C 185.200 183.975,183.800 182.023,171.236 171.047 C 170.006 169.972,167.307 167.542,165.239 165.647 C 156.030 157.209,156.603 157.600,153.462 157.600 C 151.514 157.600,151.158 157.734,150.251 158.812 M126.600 158.371 C 119.689 160.039,118.799 175.494,125.432 178.642 C 127.119 179.443,129.311 181.646,131.260 184.501 C 133.637 187.983,136.292 189.071,140.888 188.448 C 146.403 187.699,147.212 181.374,142.452 176.210 C 140.853 174.475,139.542 171.003,138.976 167.000 C 137.990 160.033,133.292 156.757,126.600 158.371 M273.821 161.962 C 272.733 162.387,274.267 162.787,277.011 162.795 C 278.228 162.798,279.413 163.066,280.011 163.472 L 281.000 164.145 280.259 163.295 C 279.851 162.828,279.041 162.357,278.459 162.250 C 275.803 161.759,274.542 161.680,273.821 161.962 M268.800 171.578 C 267.516 171.829,267.615 171.877,270.000 172.161 C 272.613 172.472,275.311 172.254,276.929 171.602 C 277.977 171.179,270.950 171.159,268.800 171.578 M114.071 179.661 C 110.464 180.178,107.627 181.636,106.007 183.805 C 105.431 184.577,105.438 184.580,106.239 183.900 C 107.937 182.458,111.961 181.210,117.148 180.516 C 120.002 180.135,122.251 179.682,122.145 179.511 C 121.897 179.110,117.324 179.195,114.071 179.661 M116.200 188.985 C 112.480 189.435,108.946 190.279,109.299 190.632 C 109.628 190.961,120.847 189.313,121.290 188.870 C 121.852 188.308,121.767 188.310,116.200 188.985 " stroke="none" fill="#047ac2" fill-rule="evenodd"/><path id="path2" d="M268.024 162.836 C 264.517 163.448,263.479 164.261,262.943 166.819 L 262.486 169.000 263.912 170.302 L 265.338 171.604 272.169 171.363 C 280.829 171.057,282.313 170.127,281.454 165.545 C 280.985 163.047,274.413 161.721,268.024 162.836 M115.800 180.637 C 107.184 181.946,103.368 184.816,105.204 188.608 C 106.384 191.046,107.366 191.435,109.714 190.397 C 110.918 189.864,113.546 189.336,116.906 188.952 C 123.236 188.228,123.580 187.983,123.586 184.200 C 123.592 179.528,123.471 179.473,115.800 180.637 " stroke="none" fill="#dcd4c0" fill-rule="evenodd"/><path id="path3" d="M210.600 106.436 C 209.081 106.971,208.416 107.250,205.128 108.729 C 201.451 110.384,201.198 110.962,200.746 118.770 C 200.338 125.793,200.362 125.743,197.177 126.165 C 193.014 126.717,193.149 125.385,193.101 166.421 C 193.054 205.161,192.908 203.927,197.513 203.643 C 202.182 203.356,202.052 203.974,202.269 181.036 C 202.402 167.063,202.614 160.651,203.044 157.600 C 203.370 155.290,203.633 151.690,203.627 149.600 C 203.618 145.948,203.482 144.911,202.365 139.958 C 201.330 135.370,205.528 131.576,209.829 133.211 L 210.852 133.600 208.488 136.500 C 204.686 141.166,204.044 144.433,204.853 155.000 C 205.395 162.072,205.356 161.994,210.110 165.497 C 213.166 167.749,218.723 167.799,220.757 165.594 C 221.360 164.940,222.422 164.349,223.274 164.192 C 224.916 163.890,225.717 163.157,226.262 161.458 C 226.525 160.637,227.053 160.170,228.140 159.796 C 228.972 159.510,229.972 158.988,230.361 158.635 C 231.018 158.041,231.103 158.070,231.546 159.042 C 232.193 160.462,231.631 161.047,229.374 161.302 C 227.196 161.547,227.140 161.595,226.835 163.471 C 226.627 164.751,226.406 164.999,225.197 165.311 C 223.333 165.793,222.867 166.234,222.574 167.797 C 222.400 168.727,221.899 169.390,220.866 170.059 C 220.062 170.579,219.084 171.685,218.693 172.516 C 218.267 173.420,217.543 174.193,216.891 174.441 C 215.481 174.977,214.398 175.966,213.957 177.119 C 213.763 177.625,213.015 178.285,212.294 178.586 C 210.730 179.240,209.897 180.117,209.051 182.000 C 208.705 182.770,208.012 183.910,207.511 184.534 C 206.173 186.199,206.174 194.717,207.512 196.830 C 207.989 197.584,208.813 199.120,209.343 200.245 C 210.412 202.513,211.519 203.473,213.486 203.843 C 214.790 204.087,214.800 204.107,214.800 206.382 L 214.800 208.675 211.300 209.431 C 208.772 209.978,206.427 210.168,202.858 210.118 C 197.644 210.044,196.000 210.635,196.000 212.582 C 196.000 212.922,195.808 213.200,195.574 213.200 C 194.112 213.200,179.276 214.480,176.800 214.820 C 175.150 215.047,172.180 215.752,170.200 216.388 C 166.365 217.619,163.619 218.019,152.200 219.013 C 143.962 219.729,141.167 220.158,139.576 220.952 C 138.131 221.673,137.399 220.086,136.553 214.400 C 136.242 212.310,135.811 210.078,135.594 209.440 C 135.377 208.802,135.199 207.182,135.198 205.840 C 135.196 204.409,134.936 202.904,134.569 202.200 C 134.196 201.486,133.716 198.653,133.383 195.200 C 132.626 187.368,132.329 186.021,130.906 183.965 C 127.849 179.546,125.065 177.737,122.318 178.384 C 121.373 178.606,119.970 178.852,119.200 178.930 C 118.190 179.032,118.379 179.090,119.876 179.136 C 121.018 179.171,122.064 179.380,122.200 179.600 C 122.336 179.820,123.185 180.000,124.086 180.000 C 126.067 180.000,128.395 181.573,128.409 182.920 C 128.414 183.404,128.745 184.520,129.145 185.401 C 131.085 189.672,131.972 210.847,130.334 213.800 L 129.669 215.000 129.444 214.000 C 128.712 210.754,128.405 207.240,128.160 199.310 C 127.851 189.285,127.967 189.633,124.593 188.618 C 122.800 188.078,122.546 188.090,121.422 188.761 C 120.665 189.213,118.603 189.672,116.000 189.969 C 105.163 191.205,105.034 191.286,104.408 197.284 C 103.732 203.755,103.061 203.061,102.553 195.365 C 102.206 190.115,102.454 188.998,104.693 185.728 C 107.190 182.080,109.930 180.058,112.496 179.968 C 112.993 179.951,113.165 179.843,112.877 179.727 C 110.360 178.720,102.174 182.567,100.807 185.400 C 98.728 189.707,99.755 212.420,102.391 220.431 C 103.654 224.271,104.303 232.287,103.683 236.400 L 103.352 238.600 103.090 236.600 C 102.945 235.500,102.709 233.075,102.564 231.210 C 102.188 226.368,100.849 224.962,96.991 225.357 C 89.712 226.103,85.912 233.464,89.107 240.627 C 89.787 242.152,90.457 244.120,90.596 245.000 C 91.340 249.715,92.072 250.766,95.364 251.847 C 96.484 252.214,97.737 252.747,98.148 253.029 C 99.513 253.966,105.466 250.203,107.053 247.400 C 107.775 246.125,107.917 246.664,108.583 253.210 C 109.366 260.905,109.714 262.612,111.174 265.946 C 112.094 268.045,112.469 269.804,112.970 274.361 C 113.740 281.382,114.113 282.841,115.558 284.505 C 116.177 285.217,117.159 286.561,117.741 287.492 C 119.867 290.890,123.787 291.729,133.422 290.849 C 143.452 289.933,150.876 285.147,147.979 281.464 C 147.341 280.653,146.972 279.011,146.327 274.110 C 145.571 268.365,145.000 266.068,143.027 260.839 C 142.657 259.859,142.162 256.618,141.911 253.531 C 141.373 246.925,141.738 245.492,144.066 245.079 C 144.800 244.948,147.560 244.395,150.200 243.848 C 153.120 243.244,158.440 242.599,163.783 242.203 C 173.092 241.513,178.437 240.707,179.877 239.778 C 180.876 239.133,185.352 238.599,194.600 238.022 C 201.301 237.605,203.943 237.044,206.852 235.424 C 208.441 234.538,209.454 234.391,218.000 233.803 C 228.043 233.113,231.624 232.556,234.534 231.230 C 236.064 230.533,237.714 230.328,244.680 229.966 C 249.256 229.728,253.990 229.294,255.200 229.000 C 258.199 228.273,259.404 229.150,260.736 233.031 C 261.717 235.889,261.703 235.716,262.790 257.800 C 263.516 272.553,264.372 273.623,274.993 273.055 C 280.247 272.774,283.887 272.013,285.549 270.848 C 286.127 270.443,287.542 269.889,288.693 269.618 C 295.728 267.957,296.331 265.763,295.616 244.421 C 294.980 225.456,295.157 223.821,297.698 225.130 C 299.607 226.113,302.973 225.979,305.349 224.827 C 308.685 223.208,309.021 221.976,308.900 211.800 C 308.753 199.462,308.312 197.990,304.157 195.979 C 303.226 195.529,302.248 194.899,301.983 194.580 C 301.651 194.179,300.676 194.000,298.829 194.000 C 294.160 194.000,292.800 196.309,292.800 204.236 C 292.800 207.082,292.632 209.257,292.400 209.400 C 292.142 209.560,291.999 207.903,291.997 204.724 C 291.991 194.421,290.343 180.751,288.630 176.800 C 288.105 175.590,287.557 173.430,287.411 172.000 C 286.626 164.279,283.619 161.193,276.887 161.198 C 274.443 161.200,274.350 161.161,273.558 159.818 C 272.616 158.222,270.138 157.126,265.737 156.360 L 263.013 155.885 264.918 155.402 C 270.327 154.028,271.624 142.511,266.696 139.604 C 265.958 139.168,265.049 138.173,264.677 137.392 C 264.305 136.612,263.381 135.608,262.625 135.162 C 261.869 134.715,260.890 133.741,260.451 132.997 C 260.012 132.252,258.953 131.202,258.099 130.663 C 257.245 130.123,256.234 129.206,255.853 128.625 C 255.473 128.044,254.279 127.026,253.200 126.362 C 252.122 125.699,251.134 124.822,251.004 124.414 C 249.929 121.024,240.113 121.149,238.102 124.578 C 237.936 124.862,237.212 125.758,236.493 126.569 L 235.186 128.044 234.175 126.844 C 233.620 126.183,232.840 125.540,232.443 125.414 C 232.040 125.286,231.511 124.481,231.243 123.586 C 230.884 122.387,230.452 121.860,229.514 121.478 L 228.264 120.967 229.932 120.468 C 236.566 118.480,230.626 109.490,221.664 107.955 C 220.199 107.704,218.500 107.244,217.889 106.933 C 216.434 106.193,212.123 105.899,210.600 106.436 M219.800 110.147 C 222.882 110.814,224.072 111.463,226.951 114.045 L 229.301 116.154 228.044 117.277 C 226.961 118.245,226.454 118.400,224.374 118.400 C 222.939 118.400,221.456 118.661,220.717 119.043 C 219.064 119.898,214.400 123.579,214.400 124.028 C 214.400 126.069,204.936 130.714,203.968 129.148 C 202.738 127.158,203.156 116.449,204.573 113.654 C 206.507 109.836,212.250 108.514,219.800 110.147 M222.394 124.685 C 222.397 124.951,221.671 125.366,220.779 125.606 C 219.887 125.846,218.789 126.411,218.339 126.861 C 217.335 127.865,216.683 127.373,216.869 125.752 C 216.990 124.692,217.164 124.584,219.200 124.293 C 220.410 124.121,221.467 123.784,221.548 123.545 C 221.722 123.037,222.384 123.930,222.394 124.685 M247.562 125.738 C 251.264 127.900,265.927 142.369,266.987 144.908 C 269.966 152.038,261.506 156.198,255.210 150.699 C 247.802 144.229,242.545 139.051,241.715 137.408 C 241.380 136.743,240.668 135.616,240.134 134.902 C 238.297 132.448,238.392 130.007,240.422 127.519 C 243.641 123.575,243.792 123.537,247.562 125.738 M229.486 127.196 C 231.274 127.204,233.011 129.316,233.501 132.077 C 234.021 135.006,233.544 148.539,232.842 150.779 C 232.439 152.069,227.215 157.600,226.401 157.600 C 226.216 157.600,225.105 158.465,223.932 159.522 C 218.117 164.764,209.463 164.246,208.138 158.576 C 207.237 154.720,207.460 142.650,208.449 141.762 C 208.915 141.343,210.002 139.965,210.864 138.700 C 211.725 137.435,212.576 136.400,212.755 136.400 C 212.935 136.400,214.171 135.365,215.503 134.100 C 221.963 127.966,224.192 126.615,227.200 127.008 C 227.970 127.109,228.999 127.193,229.486 127.196 M215.101 129.130 C 215.459 129.358,215.242 129.714,214.338 130.382 C 213.131 131.275,213.051 131.284,212.544 130.591 C 211.595 129.294,213.576 128.162,215.101 129.130 M243.600 143.866 C 245.250 145.465,247.590 147.687,248.800 148.803 C 250.010 149.919,251.908 151.704,253.019 152.769 C 254.639 154.324,255.488 154.807,257.321 155.217 C 259.910 155.797,259.911 155.899,257.329 156.771 C 254.117 157.855,253.232 160.306,253.203 168.200 C 253.185 172.874,253.030 173.356,251.349 173.964 C 250.033 174.440,249.373 175.355,248.629 177.733 C 248.088 179.461,247.458 178.103,247.627 175.576 C 248.048 169.297,247.807 159.814,247.195 158.600 C 246.588 157.394,244.997 156.423,242.400 155.674 C 241.630 155.451,240.614 155.158,240.142 155.021 C 239.654 154.880,239.050 154.999,238.742 155.297 C 237.884 156.127,234.895 157.150,234.008 156.918 C 233.017 156.659,233.015 156.587,233.954 154.600 C 234.370 153.720,235.222 151.920,235.847 150.600 C 236.650 148.906,237.052 147.309,237.216 145.171 C 237.384 142.973,237.708 141.720,238.397 140.604 L 239.347 139.067 239.974 140.013 C 240.318 140.532,241.950 142.266,243.600 143.866 M241.941 158.425 C 245.262 159.137,246.355 162.194,245.788 169.188 C 245.405 173.917,244.772 175.116,239.475 181.151 C 236.517 184.521,234.483 188.690,233.833 192.713 C 233.106 197.215,231.727 199.336,228.449 200.991 C 226.854 201.796,216.959 201.683,214.262 200.829 C 209.343 199.270,208.803 184.380,213.538 180.864 C 214.826 179.908,217.292 177.601,225.960 169.240 C 228.814 166.488,236.692 159.572,237.989 158.680 C 239.152 157.881,239.345 157.868,241.941 158.425 M267.600 159.231 C 268.590 159.679,269.980 160.605,270.688 161.290 C 271.899 162.459,272.067 162.508,273.488 162.096 C 276.507 161.223,281.200 162.817,281.200 164.716 C 281.200 165.033,281.939 165.968,282.842 166.793 C 284.827 168.608,285.039 169.509,285.382 177.600 C 285.768 186.700,285.905 187.584,286.993 187.997 C 289.065 188.785,290.639 209.142,289.624 222.037 C 288.514 236.146,286.817 227.791,286.000 204.200 C 285.530 190.624,285.374 189.171,284.359 188.905 C 283.357 188.643,282.977 187.046,282.197 179.800 C 281.243 170.934,280.947 170.466,277.000 171.598 L 274.600 172.286 276.294 172.805 C 279.381 173.749,279.359 173.665,280.578 189.200 C 281.060 195.348,281.365 197.232,282.379 200.336 C 283.140 202.664,283.600 204.902,283.600 206.273 C 283.600 207.484,283.774 210.572,283.987 213.137 C 284.200 215.702,284.574 222.390,284.818 228.000 C 285.062 233.610,285.424 240.000,285.623 242.200 C 286.933 256.698,286.695 257.177,277.913 257.729 C 273.648 257.998,273.125 257.661,272.422 254.200 C 272.153 252.880,271.516 250.450,271.005 248.800 C 270.049 245.710,269.863 243.520,268.800 222.729 C 268.579 218.399,268.128 213.449,267.799 211.729 C 267.470 210.008,267.200 207.699,267.200 206.599 C 267.200 205.498,266.835 203.338,266.388 201.799 C 265.753 199.608,265.493 197.001,265.191 189.800 C 264.980 184.740,264.706 179.967,264.584 179.194 C 264.077 175.993,266.101 173.513,269.689 172.939 C 271.765 172.607,270.873 172.184,267.227 171.771 C 262.421 171.228,260.180 174.509,261.132 180.698 C 261.963 186.099,262.397 208.242,261.743 211.900 C 261.501 213.257,261.227 213.467,260.566 212.806 C 260.307 212.547,260.153 212.650,260.118 213.106 C 260.088 213.488,259.875 215.510,259.643 217.600 C 259.411 219.690,259.217 221.508,259.211 221.639 C 259.205 221.771,257.715 222.892,255.900 224.131 C 251.084 227.418,242.356 228.602,236.652 226.741 L 235.103 226.236 235.342 223.952 L 235.581 221.669 233.690 221.016 C 230.430 219.889,220.159 219.557,203.761 220.047 C 185.033 220.606,182.587 220.519,181.561 219.251 C 179.854 217.143,181.956 216.548,195.200 215.392 C 202.383 214.764,207.346 213.976,208.726 213.242 C 210.390 212.357,217.979 211.116,224.200 210.712 C 233.192 210.127,234.000 209.774,234.000 206.430 C 234.000 204.085,234.006 204.072,235.700 203.072 C 236.635 202.520,238.016 201.427,238.770 200.643 C 241.447 197.858,251.365 196.607,254.800 198.621 L 256.200 199.442 256.446 205.221 C 256.758 212.565,256.949 213.450,258.286 213.786 C 259.317 214.045,260.176 213.409,259.743 212.707 C 259.208 211.842,259.549 199.761,260.147 198.358 C 260.486 197.564,260.883 195.314,261.029 193.358 C 261.392 188.520,261.105 188.183,256.089 187.556 C 252.072 187.054,251.898 186.939,250.221 183.656 C 249.270 181.795,250.770 178.184,253.490 175.784 C 255.539 173.977,255.913 172.633,255.971 166.877 C 256.019 162.031,256.576 160.533,258.752 159.400 C 261.185 158.132,265.008 158.060,267.600 159.231 M245.799 183.357 C 247.430 187.370,249.814 189.439,253.900 190.391 C 256.115 190.907,256.258 191.140,255.570 193.114 C 254.855 195.165,253.908 195.497,248.588 195.563 C 245.954 195.596,242.757 195.823,241.481 196.067 C 237.752 196.782,237.301 196.390,237.666 192.748 C 238.186 187.544,238.578 186.347,240.179 185.063 C 240.979 184.421,242.186 183.093,242.861 182.112 C 244.278 180.052,244.493 180.143,245.799 183.357 M121.668 190.534 C 124.633 192.788,126.400 199.978,126.400 209.786 C 126.400 215.201,127.441 222.846,128.580 225.800 C 129.089 227.120,129.614 228.521,129.746 228.914 C 129.878 229.307,130.263 232.907,130.602 236.914 C 131.449 246.911,132.303 252.534,133.408 255.387 C 134.311 257.717,134.706 260.084,135.610 268.600 C 135.844 270.800,136.095 273.016,136.167 273.524 C 136.373 274.971,134.995 275.547,129.780 276.194 L 125.027 276.784 123.907 275.711 C 123.291 275.121,122.591 273.910,122.352 273.019 C 122.112 272.129,121.680 270.942,121.390 270.382 C 121.101 269.823,120.390 266.082,119.810 262.070 C 118.770 254.873,118.134 252.274,116.982 250.517 C 116.349 249.550,115.881 246.549,115.189 239.000 C 114.676 233.411,113.862 229.510,112.849 227.794 C 111.623 225.714,111.601 225.508,110.396 204.800 C 110.185 201.170,109.830 197.575,109.608 196.811 C 109.243 195.553,109.338 195.221,110.619 193.292 C 112.245 190.843,112.109 190.918,115.800 190.453 C 119.831 189.946,120.916 189.961,121.668 190.534 M302.838 198.567 C 306.879 201.313,308.469 217.088,305.073 220.739 C 300.066 226.123,298.062 222.678,296.812 206.542 C 296.606 203.870,296.328 201.252,296.196 200.724 C 295.589 198.309,300.236 196.799,302.838 198.567 M108.352 214.584 C 109.248 220.986,109.647 230.807,109.099 232.969 C 108.084 236.974,107.088 235.305,106.363 228.387 C 105.232 217.587,107.029 205.123,108.352 214.584 M177.600 221.600 C 177.997 221.857,175.700 221.965,170.800 221.921 C 165.202 221.870,164.179 221.792,166.600 221.600 C 171.836 221.186,176.959 221.186,177.600 221.600 M134.978 224.966 C 135.814 228.323,135.687 233.427,134.698 236.185 L 134.130 237.771 133.881 236.185 C 133.067 230.984,133.112 222.000,133.952 222.000 C 134.110 222.000,134.572 223.335,134.978 224.966 M215.323 224.423 C 221.238 225.913,219.994 226.294,204.891 227.618 C 199.620 228.080,196.629 228.784,194.400 230.085 C 193.285 230.736,191.654 231.012,186.400 231.440 C 175.687 232.312,172.192 232.788,168.701 233.850 C 163.693 235.375,162.674 235.528,154.332 236.018 C 144.279 236.607,142.895 236.244,142.134 232.818 C 140.717 226.436,143.812 225.673,174.000 224.956 C 179.830 224.818,187.660 224.576,191.400 224.418 C 202.240 223.959,213.493 223.962,215.323 224.423 M266.812 231.860 C 267.089 234.467,267.355 241.524,267.404 247.543 C 267.497 259.010,267.524 259.178,269.267 259.194 C 269.634 259.197,270.774 259.560,271.800 260.000 C 274.729 261.255,281.510 260.872,286.800 259.153 C 290.981 257.793,290.889 257.991,291.271 249.518 C 291.920 235.115,292.778 237.330,292.930 253.800 L 293.000 261.400 291.693 263.644 C 289.701 267.067,289.458 267.199,282.901 268.434 C 279.655 269.046,275.658 269.839,274.017 270.196 C 272.377 270.553,270.639 270.746,270.157 270.625 C 266.823 269.788,264.670 258.017,264.629 240.400 C 264.592 224.883,265.638 220.792,266.812 231.860 M97.500 229.589 C 98.435 230.014,99.200 230.526,99.200 230.727 C 99.200 230.928,99.752 234.915,100.426 239.586 C 101.946 250.117,101.458 251.390,96.611 249.535 C 93.540 248.360,93.224 247.681,92.030 239.685 C 90.747 231.092,92.733 227.425,97.500 229.589 M219.680 230.074 L 221.800 230.548 220.200 230.848 C 215.337 231.759,205.121 231.545,206.113 230.554 C 207.000 229.666,216.375 229.335,219.680 230.074 M195.009 234.665 C 196.948 235.425,185.599 235.933,182.600 235.220 C 181.478 234.954,181.531 234.916,183.400 234.642 C 184.500 234.481,185.670 234.279,186.000 234.193 C 186.951 233.947,194.135 234.323,195.009 234.665 M112.843 241.495 C 113.593 245.279,113.580 255.087,112.824 256.400 L 112.249 257.400 111.745 255.685 C 110.044 249.887,110.209 237.493,111.974 238.584 C 112.157 238.697,112.549 240.007,112.843 241.495 M138.772 259.700 C 138.754 262.363,138.623 263.520,138.400 263.000 C 137.731 261.444,137.942 255.600,138.667 255.600 C 138.740 255.600,138.787 257.445,138.772 259.700 M117.071 264.300 C 117.479 267.153,117.458 272.468,117.031 274.600 C 116.524 277.128,115.997 275.110,115.718 269.570 C 115.378 262.807,116.328 259.104,117.071 264.300 M143.804 274.294 C 146.250 283.843,145.798 285.189,139.800 286.203 C 138.920 286.352,136.902 286.897,135.316 287.415 C 131.113 288.787,125.856 289.296,123.916 288.520 C 121.323 287.482,118.281 283.777,118.589 282.033 C 119.184 278.671,119.638 278.408,122.675 279.667 C 127.441 281.642,141.200 277.533,141.200 274.134 C 141.200 273.148,142.446 271.086,142.818 271.458 C 143.010 271.650,143.454 272.926,143.804 274.294 " stroke="none" fill="#5c583c" fill-rule="evenodd"/></g></svg></svg>